<svg width="16" height="16" viewBox="0 0 16 16" fill="none" xmlns="http://www.w3.org/2000/svg">
<path d="M10.25 8C10.25 8.44501 10.118 8.88002 9.87081 9.25003C9.62357 9.62004 9.27217 9.90843 8.86104 10.0787C8.4499 10.249 7.9975 10.2936 7.56105 10.2068C7.12459 10.12 6.72368 9.90566 6.40901 9.59099C6.09434 9.27632 5.88005 8.87541 5.79323 8.43895C5.70642 8.0025 5.75097 7.5501 5.92127 7.13896C6.09157 6.72783 6.37996 6.37643 6.74997 6.12919C7.11998 5.88196 7.55499 5.75 8 5.75C8.59653 5.75069 9.16842 5.98796 9.59023 6.40977C10.012 6.83158 10.2493 7.40347 10.25 8ZM15.0312 4.90625V11.0938C15.0301 12.1377 14.6148 13.1385 13.8767 13.8767C13.1385 14.6148 12.1377 15.0301 11.0938 15.0312H4.90625C3.86233 15.0301 2.8615 14.6148 2.12333 13.8767C1.38517 13.1385 0.969941 12.1377 0.96875 11.0938V4.90625C0.969941 3.86233 1.38517 2.8615 2.12333 2.12333C2.8615 1.38517 3.86233 0.969941 4.90625 0.96875H11.0938C12.1377 0.969941 13.1385 1.38517 13.8767 2.12333C14.6148 2.8615 15.0301 3.86233 15.0312 4.90625ZM11.375 8C11.375 7.33249 11.1771 6.67997 10.8062 6.12495C10.4354 5.56993 9.90826 5.13735 9.29156 4.88191C8.67486 4.62646 7.99626 4.55962 7.34157 4.68985C6.68688 4.82008 6.08552 5.14151 5.61351 5.61351C5.14151 6.08552 4.82008 6.68688 4.68985 7.34157C4.55962 7.99626 4.62646 8.67486 4.88191 9.29156C5.13735 9.90826 5.56993 10.4354 6.12495 10.8062C6.67997 11.1771 7.33249 11.375 8 11.375C8.8948 11.374 9.75266 11.0181 10.3854 10.3854C11.0181 9.75266 11.374 8.8948 11.375 8ZM12.5 4.34375C12.5 4.17687 12.4505 4.01374 12.3578 3.87499C12.2651 3.73623 12.1333 3.62809 11.9791 3.56423C11.825 3.50037 11.6553 3.48366 11.4916 3.51621C11.328 3.54877 11.1776 3.62913 11.0596 3.74713C10.9416 3.86513 10.8613 4.01547 10.8287 4.17914C10.7962 4.34281 10.8129 4.51246 10.8767 4.66664C10.9406 4.82081 11.0487 4.95259 11.1875 5.0453C11.3262 5.13802 11.4894 5.1875 11.6562 5.1875C11.88 5.1875 12.0946 5.09861 12.2529 4.94037C12.4111 4.78214 12.5 4.56753 12.5 4.34375Z" fill="white"/>
</svg>
