<svg width="16" height="16" viewBox="0 0 16 16" fill="none" xmlns="http://www.w3.org/2000/svg">
<path d="M3.77547 15.751H0.510156V5.23576H3.77547V15.751ZM2.14105 3.80138C1.09691 3.80138 0.25 2.93654 0.25 1.8924C0.25 1.39086 0.449236 0.909862 0.803877 0.55522C1.15852 0.200578 1.63952 0.00134277 2.14105 0.00134277C2.64259 0.00134277 3.12359 0.200578 3.47823 0.55522C3.83287 0.909862 4.03211 1.39086 4.03211 1.8924C4.03211 2.93654 3.18484 3.80138 2.14105 3.80138ZM15.9965 15.751H12.7382V10.6322C12.7382 9.41232 12.7136 7.84787 11.0405 7.84787C9.34281 7.84787 9.08266 9.17326 9.08266 10.5444V15.751H5.82086V5.23576H8.95258V6.67013H8.99828C9.43422 5.84396 10.4991 4.97209 12.0878 4.97209C15.3925 4.97209 16 7.14826 16 9.97482V15.751H15.9965Z" fill="white"/>
</svg>
