<svg width="19" height="16" viewBox="0 0 19 16" fill="none" xmlns="http://www.w3.org/2000/svg">
<path d="M16.6497 4.33381C16.6612 4.4937 16.6612 4.65363 16.6612 4.81352C16.6612 9.69039 12.9493 15.3097 6.16497 15.3097C4.07486 15.3097 2.13325 14.7043 0.5 13.6536C0.796965 13.6879 1.08247 13.6993 1.39086 13.6993C3.11545 13.6993 4.70303 13.1168 5.9708 12.1232C4.34898 12.0889 2.98984 11.0267 2.52155 9.56478C2.75 9.59902 2.97841 9.62187 3.21828 9.62187C3.54949 9.62187 3.88073 9.57617 4.18909 9.49626C2.49874 9.15359 1.23093 7.66884 1.23093 5.8757V5.83003C1.72203 6.10414 2.29314 6.27546 2.89843 6.29827C1.90477 5.63582 1.25379 4.50513 1.25379 3.22593C1.25379 2.54067 1.43649 1.9125 1.75631 1.36427C3.5723 3.60284 6.30201 5.06475 9.36289 5.22467C9.3058 4.95056 9.27152 4.66505 9.27152 4.37952C9.27152 2.3465 10.9162 0.69043 12.9606 0.69043C14.0228 0.69043 14.9822 1.13586 15.656 1.8554C16.4898 1.69551 17.2893 1.38712 17.9974 0.964543C17.7233 1.82116 17.1408 2.5407 16.3756 2.99752C17.118 2.91761 17.8375 2.71198 18.4999 2.42648C17.9975 3.15741 17.3693 3.8084 16.6497 4.33381Z" fill="white"/>
</svg>
